<?xml version="1.0" encoding="utf-8"?>
<!-- Generator: Adobe Illustrator 18.0.0, SVG Export Plug-In . SVG Version: 6.00 Build 0)  -->
<!DOCTYPE svg PUBLIC "-//W3C//DTD SVG 1.1//EN" "http://www.w3.org/Graphics/SVG/1.1/DTD/svg11.dtd">
<svg version="1.1" xmlns="http://www.w3.org/2000/svg" xmlns:xlink="http://www.w3.org/1999/xlink" x="0px" y="0px"
	 viewBox="0 0 4000 4000" enable-background="new 0 0 4000 4000" xml:space="preserve">
<g id="Layer_2">
	<rect y="1.6" width="3997.6" height="3995.9"/>
</g>
<g id="logo_xA0_Image_1_">
	<path fill="#FFFFFF" d="M1855.8,1255c1.1-11.8,1.4-21.8,3.1-31.6c8.4-48.5,36.5-77.2,85.2-87.3c30.4-6.3,61-5,91.6-3
		c41.9,2.8,83.7,7,125.6,8.8c96.6,4.2,193.2,7.5,289.8,10.7c102.9,3.4,205.9,6.6,308.8,9.2c59.7,1.5,119.3-0.2,178.9-4.3
		c39.5-2.7,79-7,118.4-10.8c35.8-3.4,71.6-7.4,107.4-10.7c20.9-1.9,41.8-3.3,62.8-4.2c14.4-0.6,28.6,1.8,42.4,5.9
		c34.5,10.2,53.5,33.6,57.7,68.9c1.9,15.9,1.9,32-3.6,47.5c-10.2,28.6-28.9,48.6-59.4,55c-15.5,3.3-31.3,1.2-46.7-1.9
		c-13.4-2.7-26.5-6.4-39.8-9.6c-29.4-7.3-58.8-7.9-87.8,1.3c-26,8.3-45,25.3-58.5,48.7c-11.7,20.2-17.9,42.2-21.9,65
		c-4.1,23.4-5.4,47-5.4,70.7c-0.1,338.7-0.2,677.3,0.1,1016c0,38.7,3,77.3,13.2,114.9c1.9,7.1,4.3,14,6.9,20.9
		c12.2,31.6,35.5,49.9,68.2,56.8c26.2,5.5,52.3,4.3,78.4-0.8c29.2-5.7,58.8-7.8,88.5-6.9c8.8,0.3,17.8,2.6,26.3,5.4
		c17.1,5.7,29.3,17.4,35.5,34.3c10,27.3,10.1,54.9-0.4,82.1c-6.9,17.9-20.3,30.2-37.6,38.3c-15.9,7.5-32.9,10.4-50.3,11.8
		c-23.4,1.8-46.5-1.4-69.6-4.9c-59.9-9.1-119.9-18.4-180.4-22.6c-51.9-3.6-103.9-3.7-155.9-1.5c-34.3,1.5-68.6,3.5-102.7,6.9
		c-33.8,3.3-67.4,8.5-101,13.1c-33.3,4.6-66.6,9.5-100.4,9.3c-14.9-0.1-29.2-3.1-42.3-10.3c-38.5-21.1-56.5-59-43.5-105.1
		c6.1-21.7,20.9-36,41.1-44.9c21.1-9.4,43.5-12.2,66.3-12.3c35-0.1,70,0.1,105-0.1c12.6-0.1,25.4,0,37.9-1.8
		c12.7-1.9,25.6-4.8,37.6-9.3c21.3-7.9,36.2-23.2,45.1-44.2c8.7-20.4,13.3-42,15.2-63.9c2.3-27.2,4.2-54.5,4.3-81.8
		c0.5-101.7,0.2-203.3,0.2-305c0-25.7-1.6-51.2-5.8-76.6c-4.6-27.6-19.6-43.7-47.4-47.3c-15.8-2.1-31.7-5.1-47.6-5.3
		c-47-0.7-94-0.7-141,0.1c-17.2,0.3-34.6,2.6-51.6,5.7c-42.6,7.6-65.6,31-72.7,73.9c-2.4,14.7-3.8,29.8-3.4,44.7
		c0.6,27,3,53.9,4.3,80.9c1.2,25,2.8,49.9,2.7,74.9c0,12.8-2,26-5.2,38.5c-9.4,36.8-30.9,55.1-68.5,59.9c-16.1,2.1-32,0.6-47.5-3.9
		c-32.6-9.4-48.8-33-54.5-65c-4.1-23.2-3.5-46.6-0.8-69.8c4.4-39,10.9-77.8,15.7-116.8c5.6-45.3,10.8-90.6,15.2-136
		c3.2-33.2,5-66.6,2.2-99.9c-3.2-38.5-7-77-11.4-115.3c-4.4-38.4-9.9-76.6-14.8-115c-2.5-19.5-4.9-39-7-58.5
		c-2.7-25.4-2.1-50.6,4.9-75.3c1.1-3.8,2.4-7.6,3.9-11.3c10.9-27.6,31.2-43.5,60.5-47.4c15.9-2.1,32-1.5,47.7,2.5
		c32.8,8.4,52.5,31.1,58.1,66.2c3.9,24.7,1.6,49.2-1,73.7c-3.5,33.8-9.7,67.3-9.2,101.4c0.2,12.6,1.3,25.4,3.9,37.6
		c6.2,28.6,23.2,49.7,48.5,64.2c19.1,10.9,39.9,16.9,61.5,19.6c17.2,2.1,34.5,3.7,51.8,3.7c42.7,0.1,85.3-0.4,128-1.6
		c13.9-0.4,27.7-3.4,41.5-5.8c18.1-3.2,29.1-14.5,32.7-32.2c2.8-14,4.9-28.2,6.1-42.4c1-12.6,0.5-25.3,0.5-38c0-64,0-128,0-192
		c0-47-1.2-94-6.4-140.8c-2-18.1-6-36.1-9.7-54c-3.8-18.5-15.7-30.2-32.9-37.3c-18.6-7.7-38.1-12.1-57.8-15.3
		c-63.1-10.1-126.7-11.7-190.4-11.4c-56.3,0.2-112.6,1.6-168.9,3.9c-47.9,1.9-95.8,6-142.9,15.6c-14.3,2.9-28.5,6.8-42.4,11.4
		c-29.6,9.8-50.9,29.5-65.2,57.1c-10.6,20.4-16.3,42.2-19.4,64.8c-3.7,26.8-4.2,53.8-3,80.8c2.4,53.6,4.3,107.2,6.9,160.8
		c1,19.9,4.6,39.7,3.6,59.8c-0.8,18.3-2,36.6-7.5,54.3c-11.7,37.4-38.3,58-77.5,59c-11.3,0.3-22.7-0.2-33.8-2.1
		c-36.1-6-58.4-27.5-66.4-63.1c-2.8-12.6-3.9-25.7-4.1-38.6c-0.5-38,0-76-0.1-114c-0.1-54.9-8.9-108.3-31.2-158.7
		c-39.5-89.8-106.2-152.9-194.7-193.5c-45.5-20.9-93.8-31.9-143.6-36.7c-57.8-5.6-115.1-3.4-172.1,8
		c-107.6,21.5-195.2,75.9-264.5,160.5c-51.1,62.4-86.7,133.2-111.6,209.6c-19.1,58.8-31.3,119.1-38.8,180.4
		c-10.4,85-12.2,170.2-7.3,255.5c5.2,91.1,18.9,180.8,47.7,267.8c25.1,76,60.9,146.3,112,208.3c75.2,91.1,171.1,146.7,287.5,166.8
		c79.4,13.7,158.6,13.4,237-6.5c80.5-20.5,151.3-58.8,210.1-117.9c54.6-54.9,87.2-121.1,99.2-197.6c6.1-38.6,8.5-77.5,8.4-116.5
		c0-16.7,1.4-33.3,5.5-49.5c0.6-2.3,1.2-4.5,1.9-6.7c11.1-36.4,35.9-56.8,73.5-61c18-2,36-1.2,53.6,3.6
		c27.2,7.5,46.3,24.1,57.1,50.2c5.8,14,9.3,28.7,9.7,43.7c4.4,144.6-30.3,277.6-121.2,392.6c-84.3,106.6-193,177.4-323.3,215.2
		c-55.2,16-111.7,24.9-169.1,28.6c-45.7,2.9-91.3,3-136.9-0.7c-211.3-17.1-381.9-108.6-508.8-279.3
		c-64.9-87.3-108.6-184.5-136.3-289.3c-14.7-55.8-24.5-112.5-30.5-170c-7.7-74.4-9.3-149-5.5-223.7c5.9-114.7,24.5-227.1,63.6-335.5
		c44.3-122.9,111.4-231.5,205.7-322.4c95.9-92.5,209.6-150.8,340.5-175.8c62.8-12,126.2-16.3,190-13.3
		c117.5,5.5,225,40.4,319.5,111.7c16.5,12.4,31.7,26.4,47.6,39.7C1849.6,1249.8,1852.1,1251.9,1855.8,1255z"/>
</g>
</svg>
